<?xml version="1.0" encoding="utf-8"?>
<!-- Generator: Adobe Illustrator 24.1.2, SVG Export Plug-In . SVG Version: 6.00 Build 0)  -->
<svg version="1.1" id="Layer_1" xmlns="http://www.w3.org/2000/svg" xmlns:xlink="http://www.w3.org/1999/xlink" x="0px" y="0px"
	 viewBox="0 0 506 139" style="enable-background:new 0 0 506 139;" xml:space="preserve">
<style type="text/css">
	.st0{fill-rule:evenodd;clip-rule:evenodd;fill:#3B97D3;}
	.st1{fill-rule:evenodd;clip-rule:evenodd;fill:#FFD766;}
	.st2{fill-rule:evenodd;clip-rule:evenodd;fill:#2C3E50;}
	.st3{fill-rule:evenodd;clip-rule:evenodd;}
</style>
<g>
	<path class="st0" d="M112.2,30.29H16.5c-7.26,0-13.2,5.94-13.2,13.19v59.34c0,7.25,5.94,13.19,13.2,13.19h13.2v19.78L56.1,116
		h43.89c7.26,0,14.85-7.58,14.85-14.83"/>
	<path class="st1" d="M79.2,76.44V17.1c0-7.25,5.94-13.19,13.2-13.19h89.1c7.26,0,13.2,5.93,13.2,13.19v59.34
		c0,7.25-5.94,13.19-13.2,13.19H165v19.78l-28.71-19.78H92.4C85.14,89.63,79.2,83.7,79.2,76.44L79.2,76.44z"/>
	<path class="st2" d="M163.12,112.12l-27.86-19.2H92.4c-9.08,0-16.5-7.41-16.5-16.48V17.1c0-9.07,7.42-16.48,16.5-16.48h89.1
		c9.08,0,16.5,7.41,16.5,16.48v59.34c0,9.08-7.42,16.48-16.5,16.48h-13.2v16.48C168.3,112.06,165.31,113.63,163.12,112.12
		L163.12,112.12z M161.7,103.13v-13.5c0-1.82,1.48-3.3,3.3-3.3h16.5c5.43,0,9.9-4.46,9.9-9.89V17.1c0-5.43-4.46-9.89-9.9-9.89H92.4
		c-5.44,0-9.9,4.46-9.9,9.89v59.34c0,5.43,4.46,9.89,9.9,9.89h43.89c0.67,0,1.32,0.2,1.87,0.58L161.7,103.13L161.7,103.13z"/>
	<path class="st2" d="M26.4,135.78V119.3h-9.9c-9.08,0-16.5-7.41-16.5-16.48V43.47c0-9.07,7.42-16.48,16.5-16.48H66
		c1.82,0,3.3,1.48,3.3,3.3c0,1.82-1.48,3.3-3.3,3.3H16.5c-5.43,0-9.9,4.46-9.9,9.89v59.34c0,5.43,4.46,9.89,9.9,9.89h13.2
		c1.82,0,3.3,1.48,3.3,3.3v13.19l21.12-15.82c0.57-0.43,1.27-0.66,1.98-0.66h43.89c5.43,0,11.55-6.11,11.55-11.54
		c0-1.82,1.48-3.3,3.3-3.3c1.82,0,3.3,1.48,3.3,3.3c0,9.07-9.07,18.13-18.15,18.13H57.2l-25.52,19.12
		C29.51,140.05,26.4,138.49,26.4,135.78L26.4,135.78z"/>
	<path class="st2" d="M25.13,89.82c-1.75-0.52-2.74-2.35-2.23-4.1l7.92-26.7c0.93-3.13,5.4-3.13,6.33,0l7.92,26.7
		c0.52,1.74-0.48,3.58-2.23,4.1c-1.75,0.52-3.58-0.48-4.1-2.22l-4.76-16.04L29.23,87.6C28.72,89.34,26.88,90.34,25.13,89.82
		L25.13,89.82z"/>
	<path class="st2" d="M25.08,78.75c0-1.82,1.48-3.3,3.3-3.3h10.89c1.82,0,3.3,1.48,3.3,3.3c0,1.82-1.48,3.3-3.3,3.3H28.38
		C26.56,82.05,25.08,80.57,25.08,78.75L25.08,78.75z"/>
	<path class="st2" d="M49.5,86.33V59.96c0-1.82,1.48-3.3,3.3-3.3h6.6c1.06,0,3.21,0.07,5.2,0.94c2.27,0.99,4.37,3.12,4.37,6.65
		c0,1.73-0.38,3.32-1.15,4.69l0.1,0.12c2.3,1.89,4.02,4.99,4.02,9.69c0,1.97-0.23,3.72-0.79,5.25c-0.58,1.57-1.5,2.86-2.78,3.8
		c-1.24,0.91-2.61,1.35-3.88,1.57c-1.25,0.22-2.56,0.26-3.76,0.26H52.8C50.98,89.63,49.5,88.15,49.5,86.33L49.5,86.33z M64.46,82.48
		c0.25-0.18,0.88-0.84,0.88-3.73c0-1.83-0.39-2.94-0.79-3.62c-0.39-0.67-0.91-1.1-1.45-1.39c-0.57-0.31-1.16-0.46-1.65-0.54
		c-0.48-0.07-0.75-0.05-0.67-0.05H56.1v9.89h4.62C63.19,83.04,64.07,82.77,64.46,82.48L64.46,82.48z M61.8,66.01
		c0.21-0.18,0.56-0.58,0.56-1.77l-0.06-0.38c0,0-0.07-0.1-0.36-0.22c-0.65-0.28-1.62-0.38-2.55-0.38h-3.3v3.3h3.63
		C60.88,66.55,61.51,66.26,61.8,66.01L61.8,66.01z"/>
	<path class="st2" d="M100.38,62.6c-1.75-0.52-2.74-2.35-2.23-4.1l7.92-26.7c0.93-3.13,5.4-3.13,6.33,0l7.92,26.7
		c0.52,1.74-0.48,3.58-2.23,4.1c-1.75,0.52-3.58-0.48-4.1-2.22l-4.76-16.04l-4.76,16.04C103.97,62.12,102.13,63.11,100.38,62.6
		L100.38,62.6z"/>
	<path class="st2" d="M100.33,51.78c0-1.82,1.48-3.3,3.3-3.3h10.89c1.82,0,3.3,1.48,3.3,3.3c0,1.82-1.48,3.3-3.3,3.3h-10.89
		C101.81,55.08,100.33,53.6,100.33,51.78L100.33,51.78z"/>
	<path class="st2" d="M126.51,59.1V32.73c0-1.82,1.48-3.3,3.3-3.3h6.6c1.23,0,6.88,0.07,8.67,0.09c4.16,0.04,4.39,6.24,0.25,6.58
		l-0.49,0.04c-0.23,0.02-0.45,0.02-0.67-0.01l-0.12-0.03l-0.41,0c-2.41-0.03-6.25-0.07-7.22-0.07h-3.3v3.3h4.55
		c0.13,0,2.83-0.11,5.6,1.39c3.08,1.66,5.69,5.02,5.69,10.81c0,1.97-0.23,3.72-0.79,5.25c-0.58,1.58-1.5,2.86-2.78,3.8
		c-1.24,0.91-2.61,1.35-3.88,1.57c-1.25,0.22-2.56,0.26-3.76,0.26h-7.92C127.99,62.4,126.51,60.92,126.51,59.1L126.51,59.1z
		 M141.47,55.26c0.25-0.18,0.88-0.84,0.88-3.73c0-1.83-0.39-2.94-0.79-3.62c-0.39-0.67-0.91-1.1-1.45-1.39
		c-0.57-0.31-1.16-0.46-1.65-0.54c-0.48-0.07-0.75-0.05-0.67-0.05h-4.69v9.89h4.62C140.2,55.81,141.08,55.54,141.47,55.26
		L141.47,55.26z"/>
	<path class="st2" d="M154.33,59.1V32.73c0-1.82,1.48-3.3,3.3-3.3h6.6c1.06,0,3.21,0.06,5.2,0.94c2.27,0.99,4.37,3.12,4.37,6.65
		c0,1.74-0.38,3.32-1.16,4.71l0.11,0.11c2.3,1.89,4.02,4.98,4.02,9.69c0,1.97-0.23,3.72-0.79,5.25c-0.58,1.58-1.5,2.86-2.78,3.8
		c-1.24,0.91-2.61,1.35-3.88,1.57c-1.25,0.22-2.56,0.26-3.76,0.26h-7.92C155.81,62.4,154.33,60.92,154.33,59.1L154.33,59.1z
		 M169.29,55.26c0.25-0.18,0.88-0.84,0.88-3.73c0-1.83-0.39-2.94-0.79-3.62c-0.39-0.67-0.91-1.1-1.45-1.39
		c-0.57-0.31-1.16-0.46-1.65-0.54c-0.48-0.07-0.75-0.05-0.67-0.05h-4.69v9.89h4.62C168.02,55.81,168.9,55.54,169.29,55.26
		L169.29,55.26z M166.64,38.79c0.21-0.17,0.56-0.58,0.56-1.77l-0.06-0.38c0,0-0.07-0.1-0.36-0.22c-0.65-0.28-1.62-0.38-2.55-0.38
		h-3.3v3.3h3.63C165.71,39.33,166.34,39.03,166.64,38.79L166.64,38.79z"/>
	<path class="st3" d="M266.61,80.2h-17.48l-11.1-20.55h-5.83V80.2h-16.3V16.53h25.49c6.5,0,11.93,2.09,16.3,6.27
		c4.43,4.06,6.65,9.31,6.65,15.74c0,3.76-0.97,7.24-2.91,10.46c-1.94,3.21-4.58,5.76-7.92,7.64L266.61,80.2L266.61,80.2z
		 M241.2,31.54h-9.01v14.28h9.01c2,0.06,3.64-0.58,4.92-1.91c1.27-1.33,1.91-3.06,1.91-5.18c0-2.12-0.64-3.85-1.91-5.19
		C244.85,32.21,243.21,31.54,241.2,31.54L241.2,31.54z"/>
	<path class="st3" d="M294.11,81.56c-6.62,0-12.15-1.39-16.61-4.18c-4.46-2.79-7.6-6.67-9.42-11.64L282,57.64
		c2.37,5.64,6.55,8.46,12.56,8.46c4.98,0,7.46-1.42,7.46-4.27c0-1.82-1.42-3.34-4.28-4.55c-0.97-0.36-3.64-1.18-8.01-2.46
		c-6.19-1.76-10.89-4.21-14.11-7.37c-3.22-3.15-4.83-7.34-4.83-12.55c0-5.88,2.1-10.64,6.28-14.28c4.31-3.64,9.59-5.46,15.84-5.46
		c5.34,0,10.07,1.26,14.2,3.77c4.13,2.52,7.28,6.11,9.47,10.78l-13.66,8c-2-4.73-5.31-7.09-9.92-7.09c-1.88,0-3.34,0.38-4.37,1.14
		c-1.03,0.76-1.55,1.77-1.55,3.05c0,1.39,0.74,2.58,2.23,3.55c1.49,0.97,4.38,2.09,8.69,3.36c3.22,0.97,5.71,1.82,7.47,2.55
		c2,0.85,4.07,2,6.19,3.46c4.43,2.91,6.65,7.55,6.65,13.92c0,6.25-2.21,11.13-6.65,14.64C307.25,79.8,301.39,81.56,294.11,81.56
		L294.11,81.56z"/>
	<polygon class="st3" points="339.17,80.2 324.06,80.2 324.06,13.8 339.17,13.8 339.17,80.2 	"/>
	<path class="st3" d="M379.98,38.9v-4.18h15.11V80.2h-15.11v-4.18c-3.1,3.64-7.4,5.46-12.93,5.46c-6.13,0-11.23-2.27-15.29-6.82
		c-4.06-4.61-6.1-10.34-6.1-17.19c0-6.91,2.03-12.61,6.1-17.1c4.07-4.61,9.16-6.91,15.29-6.91
		C372.57,33.45,376.88,35.27,379.98,38.9L379.98,38.9z M363.5,64.65c1.7,1.82,4.01,2.73,6.92,2.73c2.91,0,5.22-0.91,6.92-2.73
		c1.76-1.88,2.64-4.27,2.64-7.19c0-2.91-0.88-5.31-2.64-7.19c-1.7-1.82-4.01-2.73-6.92-2.73c-2.91,0-5.22,0.91-6.92,2.73
		c-1.76,1.88-2.64,4.27-2.64,7.19C360.86,60.37,361.74,62.76,363.5,64.65L363.5,64.65z"/>
	<path class="st3" d="M431.62,33.45c5.04,0,9.09,1.71,12.15,5.14c3.06,3.43,4.6,8.23,4.6,14.41V80.2h-15.11V54.91
		c0-2.3-0.61-4.08-1.82-5.32c-1.21-1.24-2.88-1.87-5.01-1.87c-2.37,0-4.2,0.71-5.51,2.14c-1.31,1.43-1.96,3.47-1.96,6.14V80.2
		h-15.11V34.72h15.11v4.55C421.69,35.39,425.91,33.45,431.62,33.45L431.62,33.45z"/>
	<path class="st3" d="M489.07,39.09v-4.36H504v43.65c0,7.04-2.34,12.36-7.01,15.96c-4.67,3.61-10.32,5.41-16.93,5.41
		c-5.1,0-9.6-0.96-13.52-2.87c-3.91-1.91-6.87-4.65-8.88-8.23l12.56-7.28c2.19,3.46,5.4,5.18,9.65,5.18c2.79,0,5.02-0.71,6.69-2.14
		c1.67-1.43,2.5-3.44,2.5-6.05v-4.36c-3.09,3.76-7.34,5.64-12.74,5.64c-6.25,0-11.44-2.24-15.57-6.73c-4.06-4.43-6.1-9.88-6.1-16.37
		c0-6.49,2.03-11.95,6.1-16.37c4.13-4.49,9.32-6.73,15.57-6.73C481.73,33.45,485.98,35.33,489.07,39.09L489.07,39.09z M472.41,63.37
		c1.88,1.76,4.22,2.64,7.01,2.64c2.85,0,5.16-0.88,6.92-2.64c1.82-1.82,2.73-4.09,2.73-6.82c0-2.79-0.91-5.03-2.73-6.73
		c-1.7-1.82-4.01-2.73-6.92-2.73c-2.85,0-5.19,0.91-7.01,2.73c-1.76,1.76-2.64,4-2.64,6.73C469.77,59.22,470.65,61.49,472.41,63.37
		L472.41,63.37z"/>
</g>
</svg>
